<svg xmlns="http://www.w3.org/2000/svg" fill="none" viewBox="0 0 100 100">
  <path fill="#22AE75" d="M50 9.375C27.5 9.375 9.375 27.5 9.375 50S27.5 90.625 50 90.625 90.625 72.5 90.625 50c0-4.375-.588-8.731-2.15-12.794L83.4 42.187c.625 2.5.978 5 .978 7.813a34.276 34.276 0 0 1-34.375 34.375A34.279 34.279 0 0 1 15.625 50 34.276 34.276 0 0 1 50 15.625c9.375 0 17.794 3.731 23.731 9.669l4.394-4.394C70.937 13.713 60.937 9.375 50 9.375ZM85.25 22.75 50 58.01 36.625 44.633l-4.5 4.491L47.75 64.75 50 66.894l2.25-2.147 37.5-37.5-4.5-4.5v.003Z"/>
</svg>
